<?xml version="1.0" encoding="utf-8"?>
<!-- Generator: Adobe Illustrator 27.5.0, SVG Export Plug-In . SVG Version: 6.00 Build 0)  -->
<svg version="1.1" id="Layer_1" xmlns="http://www.w3.org/2000/svg" xmlns:xlink="http://www.w3.org/1999/xlink" x="0px" y="0px"
	 viewBox="0 0 750 750" style="enable-background:new 0 0 750 750;" xml:space="preserve">
<g>
	<polygon points="175.064,560.117 171.177,556.716 166.804,556.23 163.403,555.259 159.03,555.259 156.601,555.744 155.572,556.202 
		153.685,556.716 146.883,560.603 142.996,564.004 140.081,568.377 137.166,572.264 136.68,576.637 136.745,576.896 136.68,577.609 
		137.112,578.364 137.166,578.58 137.235,578.58 138.623,581.01 142.51,584.411 153.199,584.897 154.657,585.294 154.657,585.383 
		158.544,586.354 162.917,586.354 164.374,585.869 168.747,584.897 170.205,583.925 175.064,580.038 178.465,575.179 
		178.465,572.264 179.922,568.863 178.465,564.49 	"/>
	<polygon points="651.218,266.165 656.563,269.08 661.907,269.08 666.766,267.622 670.167,264.707 672.111,259.848 672.597,253.532 
		671.139,249.645 667.738,245.758 662.879,243.815 657.049,243.815 653.162,245.272 647.817,250.131 645.874,254.018 
		645.874,258.391 647.331,261.306 	"/>
	<polygon points="457.841,599.473 459.785,595.586 460.271,593.157 459.299,591.699 455.898,589.755 453.468,585.869 
		451.525,583.439 447.152,583.439 442.293,585.869 439.378,589.755 436.463,594.128 436.463,596.558 436.949,597.044 
		440.35,601.416 443.751,601.902 444.237,603.846 445.209,604.818 445.694,605.303 449.095,606.275 450.067,605.789 
		451.039,605.303 454.44,600.445 	"/>
	<polygon points="544.326,342.932 541.897,347.791 542.869,350.221 545.298,350.706 551.129,349.249 553.558,347.791 
		556.473,342.932 561.332,339.531 563.275,337.102 562.304,332.729 559.874,331.272 555.987,331.757 551.615,334.187 
		548.762,335.817 549.185,333.701 549.671,330.3 547.728,328.356 545.298,327.87 544.326,329.328 541.411,331.757 541.897,333.701 
		542.383,338.074 543.841,339.045 546.756,339.531 546.27,340.503 	"/>
	<polygon points="492.824,603.846 491.366,602.388 488.937,600.93 485.05,600.93 483.107,601.902 479.705,602.874 479.705,603.846 
		482.135,605.303 482.135,608.704 480.191,610.162 476.79,614.049 477.276,617.45 479.22,619.88 485.536,619.88 487.965,619.394 
		488.694,618.908 488.937,618.908 489.131,618.616 490.88,617.45 494.282,614.535 496.711,614.535 496.711,613.563 494.767,612.106 
			"/>
	<polygon points="392.734,640.286 394.678,638.829 395.164,636.399 394.192,634.942 393.22,631.54 391.763,626.196 387.876,622.795 
		387.876,612.591 383.989,608.219 380.588,607.733 379.13,609.676 379.616,614.049 381.559,618.908 384.475,621.337 
		386.904,622.309 386.904,623.281 385.932,623.281 383.017,624.738 381.559,627.168 381.559,631.54 382.531,633.97 386.904,635.913 
		387.876,637.857 389.819,640.286 	"/>
	<polygon points="95.866,267.622 104.126,272.481 107.042,272.967 108.013,272.481 108.499,270.052 107.527,268.108 
		105.098,265.193 103.155,260.334 101.211,257.419 97.324,254.018 93.437,252.074 90.522,252.56 88.578,254.99 88.578,258.877 
		90.522,262.764 	"/>
	<polygon points="111.9,455.655 112.386,453.225 110.443,450.31 105.584,447.881 99.268,447.395 98.296,446.909 94.895,443.994 
		92.465,438.163 89.064,435.248 87.121,435.734 86.635,438.163 87.607,440.107 87.931,440.323 88.093,440.593 88.457,440.674 
		91.771,442.883 92.077,443.265 93.923,447.881 96.838,451.282 97.81,455.655 98.782,456.627 103.64,458.57 107.527,458.57 
		108.985,458.084 	"/>
	<polygon points="535.581,235.069 534.609,239.442 536.552,240.413 540.925,240.413 546.27,238.47 548.699,236.526 549.671,233.125 
		552.586,232.154 554.53,229.724 555.016,227.295 553.072,224.866 549.671,224.866 538.01,232.154 	"/>
	<polygon points="554.53,149.555 555.987,149.069 559.388,146.64 563.275,142.267 565.219,138.38 565.705,134.979 564.733,132.55 
		565.705,132.55 568.134,130.12 569.592,126.719 567.162,126.233 565.219,128.663 563.761,132.064 560.36,133.036 555.501,136.923 
		551.615,142.267 550.157,147.126 551.615,149.069 	"/>
	<polygon points="341.232,150.041 345.605,150.527 348.034,149.069 350.949,144.697 351.435,141.296 349.978,138.866 
		347.062,136.923 342.69,136.923 341.232,137.409 337.831,140.324 335.887,143.239 335.887,146.154 337.345,148.584 	"/>
	<polygon points="93.437,499.383 89.55,502.298 87.607,505.214 87.607,509.587 90.522,514.445 90.522,518.818 89.55,521.733 
		90.036,524.649 92.465,525.62 93.923,523.677 93.923,520.762 93.437,517.846 93.437,514.931 96.838,508.615 100.239,505.214 
		100.239,502.298 97.81,499.869 	"/>
	<polygon points="517.569,661.248 517.603,661.179 515.66,659.721 511.773,659.235 508.858,660.693 506.914,664.094 
		506.914,668.953 506.914,669.438 507.886,670.896 512.259,672.84 516.146,672.84 517.603,672.354 520.033,669.924 520.033,665.066 
		518.089,661.665 	"/>
	<polygon points="402.452,113.115 407.796,117.002 413.627,117.002 415.084,116.516 418,114.573 420.429,109.714 420.429,105.341 
		419.943,101.454 418,98.053 418.486,94.166 421.401,88.335 423.344,83.477 427.717,69.872 429.661,61.612 433.062,47.036 
		434.519,40.72 437.435,37.319 437.981,36.226 438.406,35.861 438.892,34.404 438.892,29.059 438.406,26.63 435.491,24.686 
		427.231,24.686 424.802,26.144 423.344,29.545 423.344,33.432 423.83,34.89 423.83,42.663 422.373,55.782 420.429,64.528 
		418,70.844 412.655,86.878 411.781,90.085 411.683,89.793 411.197,92.222 407.796,92.708 404.881,94.652 401.48,99.025 
		400.022,107.284 400.508,110.686 	"/>
	<polygon points="506.428,306.006 508.372,306.006 509.344,305.52 513.716,302.119 519.061,298.232 524.406,292.888 
		528.779,293.373 532.18,293.373 539.954,289.972 540.925,288.029 538.496,286.571 536.552,286.571 536.067,288.515 
		530.722,289.001 529.681,289.313 528.293,289.487 519.061,292.888 509.344,300.176 	"/>
	<polygon points="295.884,138.866 296.046,140.324 296.434,140.518 296.532,140.81 298.961,143.239 299.447,147.612 301.39,149.555 
		304.306,149.555 305.277,148.584 305.763,145.668 304.791,144.211 304.791,141.781 305.277,141.296 307.221,138.38 
		306.249,135.951 301.876,133.036 298.475,133.036 297.503,133.522 296.856,134.331 296.046,134.979 295.969,135.439 
		295.56,135.951 295.689,137.117 295.56,137.894 	"/>
	<path d="M28.816,420.672l3.887,2.429l1.458,0.972l1.458,0.486l0.972,0.486h0.486l1.458,0.486l7.288,0.486h14.09l11.661-2.429
		h14.576l4.373,0.486l2.915-0.972l7.774-3.401l9.232-3.887l2.186-1.093l0.243,0.121l5.527-2.976l5.648-1.883h6.802l3.887-0.972
		l5.345,0.486l0.972,1.943l2.429,5.345v3.401l-1.943,6.802l-1.943,3.401l-1.458,2.915l-1.943,0.972l-0.486,1.458l2.429,2.915
		l1.325,0.398l-0.353,0.088l3.357,0.839l0.044,0.133l-0.486,2.429l0.081,0.04l-3.129,4.067l-2.783,3.18l-1.458,1.458l-6.316,6.316
		l-0.486,0.486l-0.486,4.373l-4.859,0.486l-1.166,0.437l-0.292,0.049v0.061l-2.429,0.911l-4.859,2.915l-1.943,7.288l-2.915,3.401
		l-0.389,0.972l-2.041,3.401l-2.429,1.943l-6.802,2.429l-6.802,0.486l-5.83-1.458l-4.373-0.486l-1.458,0.972l-0.663,0.795
		l-0.795,0.663l-0.46,0.844l-0.511,0.614v0.324l-1.944,3.563l-2.915,1.458L67.2,495.01l-2.429-1.943l-5.83,0.972l-1.943,2.915
		l-1.943,2.429l-1.458,2.429l2.429,3.401l1.458,4.859l0.972,0.972l5.831,0.486l1.458-0.972l1.458-3.887l2.429-1.944l7.288-0.972
		l3.887-1.458l5.83-0.972l2.915-1.458l4.373-2.915l5.345-4.373l0.944-0.5l0.028,0.014l7.288-3.887l2.429-1.943l2.915-1.943h5.345
		h6.802l2.915-0.486h4.373l0.486,0.486l0.972,0.972l0.694-0.139l0.278,0.139l1.458-0.486l0.162-0.324l0.324-0.162l0,0l1.417-0.283
		l0.283,0.04l0.364,0.121l-1.093,1.093l-0.486,1.943l3.887,0.972l5.053-3.79l3.207-2.041h2.915l0.972,0.486l2.915-0.486l3.887-2.915
		l2.429-0.486l5.345,5.345l3.401,1.458h3.887l-0.486,1.943l-1.458,1.296l-1.944,1.62l-0.097,0.194l-0.875,0.777l-0.486,2.915
		l1.943,1.943l2.915,3.401l3.887,3.401l4.373,0.486l-0.486,1.458l-1.458,0.972l-0.486,2.429l1.458,2.429l2.429,1.944l2.915,0.486
		l1.458-0.486l1.943-1.944l0.15-0.897l0.336-0.561l-0.121-0.729l0.121-0.729l-0.343-0.6l-0.143-0.857l-0.81-0.81l-0.648-1.134
		l-0.694-0.208l-2.221-2.221l4.859-1.458l3.401-2.915h3.401l0.972,0.486l4.859,3.401l1.406,1.249l0.052,0.208l2.915,2.429
		l3.887,2.915l1.009,5.382l0.319,2.392h-4.729l-3.401,1.458l-0.121,0.304l-1.336,0.668l-3.401,3.401l-0.023,0.116l-0.463,0.37
		l0.177,1.06l-0.177,0.883l0.432,0.648l0.054,0.324h0.162l0.324,0.486l0.486,2.429l-1.943,1.943l-5.345,1.943l-2.915,1.458
		l-6.802,2.915l-0.108,0.108l-0.864,0.378l-3.887,3.401v3.887l0.972,5.831l3.887,4.373h5.83l2.429,0.972l11.175,0.972v2.429
		l-1.458,1.458v0.486v3.401l0.486,1.458l0.162,0.162l1.296,3.239l2.915,5.831l2.429,1.943l2.429,2.429l2.429,0.972l1.458-1.458
		l1.944-0.486l4.373,3.887l7.288,3.887v3.401l-1.943,1.458l-1.943,1.458l-2.915,3.887l-2.429,5.831l-5.83,11.175l-2.84,7.101
		l-0.075-0.299l-0.972,2.915l-4.373,9.717l-0.486,6.802h0.486l0.972-2.429l2.429-5.345l1.943-1.944l4.373-8.26l3.401-3.401v-0.309
		l1.943-2.12l2.915-5.83l3.887-4.373l1.08-1.62l0.378-0.324l0.162-0.486l0.324-0.486h0l4.373-6.316l3.887-3.887l0,0l2.915-2.915
		l6.802-3.401l3.887-2.429l3.401-0.486l2.429,3.887l3.887,9.717l2.429,8.746l1.943,11.661l1.943,4.859l1.043,1.173l-0.071,0.284
		l0.972,0.972l0.463,0.278l1.481,1.666h4.859l0.972-0.486l0.162-0.27l0.324-0.216l0.389-0.972l0.583-0.972l0.139-0.833l0.833-2.082
		v-4.859l-0.486-1.458h-0.347l-1.111-1.944l-2.429-5.83l-3.887-8.746l-2.429-7.288l-3.887-9.232l-0.378-2.267l0.324-0.972
		l3.455-2.591l2.429,0.486l3.837,5.969l0.05,0.347h0.174l0.312,0.486l3.401,0.972l1.943,2.429l0.934,0.747l0.037,0.224l0.972,0.583
		l0.486,0.389l0.257,0.057l0.715,0.429l2.209,0.221l1.193,0.265l9.717,0.486l0.589-0.074l1.84,0.074l1.458-0.486l1.767-2.12
		l2.12-1.767l7.288-0.972h3.401l1.943,0.972l0.972,0.486l0.833,0.208l4.512,1.735l0.486,1.943l-2.429,11.661l-0.486,7.288
		l-1.943,17.491l-2.429,15.062l-1.943,13.119l-1.943,17.005l-1.943,8.746l-1.943,3.887l0.486,5.83l0.972,0.972l2.429,0.486
		l0.972-1.458l0.972-4.373l1.458-11.661l3.887-22.836l1.944-8.26l1.943-9.717l2.429,0.911v0.061l0.262,0.037l1.196,0.448
		l0.897-0.149l1.047,0.149l0.972-0.486l1.943-1.943v-2.915l-1.943-1.943h-3.401l-2.429,1.458l0.972-6.802l1.944-11.175l0.972-6.802
		l1.458-5.345l0.972-8.26l2.429,1.458l5.83,1.458l4.859,2.429l8.26,1.943l10.203,1.458h6.316l5.831-0.972l7.774,1.943h5.345
		l8.746-1.943v2.915l0.486,0.972l2.429,2.429l3.401,0.486l1.943-1.943v-4.373l-0.486-1.458l-1.521-1.901l-0.202-1.412l0.265-1.06
		l3.401,0.486l4.373,2.429l1.944,5.345l1.943,3.887l2.915,10.689l0.972,11.661l0.486,0.972l3.401,1.943h3.887l2.429-1.458
		l0.972-1.943h0.972v0.972l1.458,1.943l3.401,2.915l2.915,0.486l2.915-1.458l1.944-3.401v-3.401l-1.458-3.401l-2.915-2.429h-3.401
		l-2.915,2.429l-1.458,2.429h-0.972l-0.486-0.972l0.972-1.943l0.486-2.429l-2.915-0.972v-1.701l0.486-1.215l0.486-2.429
		l-2.429-1.458l-1.458-6.316l-0.547-1.367l-0.425-1.63v-2.348l0.972-5.83l3.887-0.972l3.887-2.915l2.429-1.458v-2.915l1.458-0.972
		l9.232-5.83l1.943-4.373l1.943-1.458l2.915-3.401l3.401-3.401l1.943-0.486l4.859,3.887h2.429l1.458-2.429v-2.915l-0.486-0.972
		l0.486-2.429l3.401-3.887l2.915-1.943l3.887-0.486l1.943,1.943h2.915l0.486-0.486l2.429-0.486l1.458,1.458h3.401l3.887-1.943
		l1.458-2.429l-0.486-4.373l-0.972-2.429l-0.486-2.915l1.943-0.972l2.915,0.486l2.429,3.887l0.972,4.373l0.972,0.972l0.486,0.486
		l0.972,0.389l0.972,0.583l0.299-0.075l0.187,0.075l1.458-0.486l2.915-0.486l0.526,2.632l-0.04,0.283l0.486,1.943l0.352,0.151
		l0.134,0.335h0.648l2.267,0.972l1.944,1.458l0.347,0.069l0.625,0.416l0.729-0.146l0.729,0.146l0.972-0.486l1.041-2.429h1.874
		l1.943,2.915l3.401,3.887l0.486,2.915l-0.972,0.972l-1.458,3.401v4.373l1.943,2.429l0.486,2.429l-4.373,1.458l-3.401,1.458
		l-3.887,4.373l-2.429,0.486l-0.972-0.972h-2.915l-0.486,0.486l-0.486,2.429l1.458,1.458h2.915h1.943l0.486,2.429l0.433,3.899
		l-4.32,0.96l-0.419,0.335l-0.553,0.151l-0.648,0.81l-0.81,0.648l-0.208,0.625l-0.278,0.347l-1.458,4.859l-2.915,1.458l-1.458,1.943
		v4.859l0.972,4.373l2.915,3.401h4.373l0.972-0.486l0.883-1.06l1.06-0.883l0.067-0.469l0.419-0.503l-0.174-1.215l0.174-1.215
		l-1.458-2.915l-0.416-0.139l-1.527-2.291l-0.972-2.429l2.429,0.486l2.429,2.429l3.401,2.915h2.915l0.972-0.486l1.943-2.429
		l-0.486-3.887l-1.458-1.943l-0.133-0.044l-0.353-0.442l-3.887-1.166v-2.721l0.972-1.943l2.429-1.458h4.373l3.401-0.486l2.915-2.429
		l1.458-4.859l3.887-0.972h3.887l0.972,0.972l2.915,5.83l0.81,0.324l0.162,0.162l0.648,0.162l0.81,0.324v1.943h-0.972l-9.717,7.774
		l-4.373,4.373l-6.802,9.232l-3.401,6.802l-4.859,10.689l-0.486,4.373l1.458,2.429l2.429,0.486l1.944-1.458l1.943-3.887l0.972-3.887
		l1.458,0.486l1.944,1.458l4.859,2.429h3.887l1.943-1.458v-4.373l-1.943-2.915l-5.345-3.401l0.486-3.401l1.943-4.373l4.373-5.345
		l3.534-3.092l3.754-2.253l0.243-0.486l0.729-0.486l3.401-0.486v1.458l-0.229,0.572l-0.257-0.086l-0.486,1.943l1.458,3.887
		l3.401,4.373l4.859,0.972l4.373,3.401h2.915l0.486-0.486l0.139-0.347l0.833-1.111l-0.149-0.598l0.149-0.374l-0.416-0.694
		l-0.069-0.278l-0.972-2.429l3.401,0.486l0.785-0.112l0.673,0.112l1.943-0.486l3.887-2.915l1.943-0.972l2.429,3.887l3.887,4.373
		l1.458,3.401l0.972,0.972l1.943,0.972l0.486,1.458l1.458,2.429l1.943,1.458l2.915,2.429l5.831,4.373l4.859,0.486v0.972l0.389,0.194
		l0.097,0.292l1.331,0.591l0.127,0.38l0.916,0.083l1.999,0.888l8.26,0.972l3.401,0.972l0.972,2.429l3.401,3.401l2.915,1.943h7.288
		l6.802,4.373l1.943,2.429l3.904,2.863l-0.017,0.052l3.401,2.429l4.859,3.401l4.859,2.429l2.429,2.429l0.972,0.607v0.364
		l3.422,1.901l3.38,2.957l3.887,2.429l1.458,4.859l2.915,0.972h3.401l1.943-0.972l1.943-2.429v-2.915l-1.458-3.401l-2.915-2.429
		l-9.717-1.458l-0.972-1.944l-3.673-1.633l-3.809-2.449l-2.721-1.871l-2.429-1.822l-0.065,0.13l-2.85-2.073l-1.458-0.972
		l-1.944-1.458l-0.347-0.069l-0.625-0.416l-3.401-2.915l-4.373-2.429l-6.316-5.345l-0.972-1.781v-0.162l-1.943-3.401l-2.429-1.943
		l-4.373-0.972v-0.972l-0.114,0.171l-0.372-2.601l-1.458-1.943l-5.345-3.887l-2.429-1.458l-5.345-0.486l-4.373-0.972l-2.429-2.429
		l-2.429-1.458l-3.887-2.915l-6.802-3.887l-5.831-4.859l-2.429-2.429l-2.915-2.429l-2.915-3.401l-0.486-0.378l-0.972-1.08
		l-3.037-2.278l-1.822-5.011l-5.345-5.831l-2.915-4.373l-4.373-1.458l-1.943-2.915l-2.915-1.943l-4.373-4.859l-2.429-2.429
		l-1.458-2.429l-3.887-1.943l-1.943-2.915l-2.915-2.429l-2.429-0.972v-0.972l-2.429-5.345l-3.887-3.401l-3.401-4.373l-3.887-3.887
		l-0.486-0.486l-0.112,0.037l-3.289-2.467l-0.76-1.901l0.275-0.366l0.972,0.324l4.859,3.401l5.345,3.401l12.633,6.802l4.373,1.458
		l0.114,0.4l-0.114,0.572l0.972,2.429l2.915,1.943h3.401l2.429,0.54l3.401,1.89l0.389,0.162l0.583,0.324l2.527,0.972l2.332,0.972
		l7.774,2.915l6.316,0.972l9.232,2.429l18.463,5.83l0.583,0.065l1.36,0.421l1.143-0.143l1.286,0.143l1.458-0.486l1.458-1.943v-2.915
		l-0.972-1.458l-3.401-1.458l-9.232-1.943l-8.746-3.401l-4.13-1.215l-2.187-0.729l-0.158,0.039l-1.786-0.525l-7.288-0.972
		l-11.661-2.915v-1.458v-1.943l-0.972-0.972l-1.458,0.486l-0.069,0.278l-0.417,0.208l-5.83-0.486l-2.429-2.915l-0.122-0.061
		l-0.364-0.425l-0.68-0.097l-1.749-0.875l-1.458-0.972l0.439-0.494l0.047,0.008l3.401-3.887l4.859-0.486l1.943-1.943v-3.401
		l-2.915-1.943h-2.915l-1.652,2.478l-1.101,0.275l-1.62-0.324l-0.972-0.486l-1.215,0.174l-1.215-0.174l-0.572,0.429l-0.4,0.057
		l-0.265,0.442l-0.707,0.53l-0.122,0.85l-0.364,0.607l0.139,0.972l-0.139,0.972l0.875,2.624l-0.256,0.085l-5.477-3.195
		l-11.175-7.288l-2.915-0.972l1.458-2.915v-3.401l-0.972-0.972l-2.915-0.972l-2.429,1.943l-0.486,2.915l-6.802-3.401l-2.429-1.458
		l-0.486-1.944h1.458l5.83-0.486l1.458-0.972h6.802l8.26,0.972h8.26l3.887,2.915l0.972,2.429l1.943,1.458h6.316l3.887-1.458
		l2.429-2.915v-3.401l-2.429-3.401l-0.486-0.405v-0.081l-0.463-0.37l-0.023-0.116l-0.425-0.243l-1.518-1.215l-4.296-1.688
		l-0.563-0.256l-7.288-2.915l-0.45-0.09l-1.008-0.396l-1.512-0.108l-1.89-0.378l-5.232-0.262l-4.485-0.641v-0.069l-7.288-0.972
		l-3.779,0.378l-1.528-0.191l-1.009-0.673l-6.316-0.486l-1.943-0.486l-4.373-2.429l-7.288-7.288l-0.972-2.429l5.247,0.875
		l0.772,0.178l2.689,1.152l1.495,1.196l5.83,2.915l7.774,0.972l4.859,1.458l11.175,1.943h4.373l10.689,0.486l1.943,0.486
		l7.288,0.972l7.709,1.101l12.212,3.757h3.887l0.972-0.486l0.972-3.401h3.401l0.972-0.486h15.062l0.972-0.486l-0.486-0.972
		l-3.401-0.486l-9.717-0.972l-2.915-0.972h-2.915l-1.121,0.448l-0.336,0.037l0.23-2.302l0.256-0.128v-2.429l-3.887-2.429h-7.288
		l-13.119-0.486l-6.802-0.972l-7.774-0.972l-1.458-2.429l-3.401-1.458l-13.119-2.429l-6.316,0.486l-2.915-1.944l-2.429-2.429
		l-3.401,0.486l-2.915,0.486l-4.859-2.915l-0.197,0.158l-0.289-0.158l-1.943,1.943l0,0l0,0l-3.401,3.401l-2.429,0.972l-5.83-0.486
		l-1.458-0.972l-1.943-3.401v-3.887l0.486-0.972l-0.486-3.401l0.972-4.373l0.972-8.26l4.373-0.486l0.486-0.486l11.175-1.458
		l0.972-0.972l0.972-0.972l3.401-0.486l1.458-0.972l2.429-2.429l2.429-4.859l1.943-1.943l3.401,3.401l2.429,0.486l1.943-0.972
		l1.944-2.429v-3.887l1.943-0.972l8.26-2.915l3.401-1.943l1.546-0.663l1.855-0.309l1.458,1.458l4.373,0.486l1.458-1.458l0.972-2.915
		l1.458,0.486l10.689,1.458l15.062,1.943l9.232,1.458l6.802,1.458l4.859,0.972l1.944,1.458l0.972,0.583v0.389l1.458,0.486h3.887
		l3.887-1.458l14.09-0.972l11.661-0.486l4.859,0.972h3.887h7.774l5.345-0.486l1.944-0.324l1.458-0.162l0.607-0.182l1.822-0.304
		l7.774-2.915l1.943-1.943l0.324-0.648l1.134-1.296v-6.316l-0.486-0.972l-1.388-1.215l-1.041-1.215l-0.81-0.405l-0.648-0.567h-0.486
		l-1.944-0.972l0.972-1.943v-5.83l-0.486-0.972l-1.943-2.429l-3.401-0.972l-11.661-0.972h-6.802l-2.915-0.972l-7.774-0.972
		l-1.943-0.108l-7.774-0.864l-13.604-1.458l-6.802-1.458l-0.972-0.972l1.296-0.486h0.162l2.429-0.972l2.429-1.458l-0.486-1.943
		l0.486-3.401l1.327-3.98l3.532-0.392l1.943-0.972v-2.429l-3.401-0.486l-1.458,0.972h-5.345h-0.972l-2.915,2.429l-9.717,0.972
		h-4.373v-0.972l-0.972-0.486l-9.232-0.486l-7.288,0.486l-6.316-2.429h-3.887l-1.458,0.486l-0.069,0.278l-1.388,0.694l-2.915-0.486
		l-3.887-2.429l-9.232-4.373l-0.972-2.429l3.401-1.943l-0.486-2.915l-1.458-2.429h-2.915l-1.943,0.972v-0.972l-2.915-2.429
		l-2.429-1.943l-0.972-2.429l0.486-2.915l1.943-2.429l-0.486-2.429l-3.401-2.915l0.486-4.373h-7.288l-2.429-1.458l-0.486-2.915
		l3.401-0.486l1.458-0.486l0.583-0.389l1.36-0.583l0.555-0.694l0.416-0.278l0.194-0.486l0.777-0.972l-0.177-0.53l0.177-0.442
		l-0.648-0.972l-0.324-0.972l-0.694-0.555l-0.278-0.416l-0.486-0.194l-0.972-0.777l-0.648,0.13l-0.324-0.13l-0.486,0.292
		l-0.972,0.194l-2.429,2.429l-6.316,2.429h-3.401l-3.401-1.943l-3.401,0.486l-4.373,0.486l-0.486-0.486l-1.458-3.887l-2.429-0.972
		l-0.486-1.458l-0.486-6.802l-0.972-5.345l-1.458-3.401l-1.458-8.26v-3.887l0.486-0.972l2.429-2.915v-2.429l-1.458-2.429h1.458
		l4.859-1.458l2.915-2.429l0.486-1.943l-0.972-0.972h-4.859l-3.887,1.458l-5.345,1.943l-0.179,0.358l-0.307,0.128l-2.429,0.972
		l-3.887-1.944h-1.943h-4.373v-1.943l1.701-3.401l1.215-2.429l0,0l0.486-0.972l2.915-3.401l5.345-4.373l3.401-3.887l2.429-1.458
		l3.831-0.958l-0.43,3.873h2.429l0.663-0.442l0.309-0.044l1.943-1.458l1.458-0.972l0.162-0.243l0.324-0.243l0.486-0.972l0.972-1.458
		l0.486-1.458l0.972-1.943l-0.486-2.915l-1.458-0.972h-2.915l-6.802,1.458l-0.54,0.27l-0.918,0.216l-0.81,0.648l-0.648,0.324
		l0.015,0.182l-0.987,0.79l-4.049,2.429l-0.938,0.511l-1.492,0.298l-0.907-0.227l-0.206-0.826l0.304-1.215l0.486-0.486l3.887-1.943
		l4.859-2.915l3.401-3.401l2.915-2.915l0.331-0.795l0.155-0.177l1.943-4.859l2.429-5.83l1.943-2.429l7.288-6.316l12.633-7.288
		l7.288-3.401l0.648-0.405l0.324-0.081l2.915-1.943l1.943-1.943l0.486-0.486v-2.429l-0.972-0.972l-0.85-0.121l-0.607-0.364
		l-1.093,0.121l-0.85-0.121l-1.388,0.37l-1.041,0.116l-2.429,0.81l-2.429,0.648l-0.972,0.486l-1.458,0.486l-1.701,1.093
		l-0.729,0.364l-0.292,0.292l-4.081,2.624l-4.859,4.859l-1.943,0.972l-0.486-4.373l-0.486-0.607v-0.364l-1.458-1.458h-4.373
		l-2.915,2.915l0.486,4.373l1.458,1.943l0.143,0.057l0.343,0.429l0.486,2.429l-1.458,1.943l-7.774,3.887l-4.373,0.972l-5.83,1.943
		v-0.972l-2.915-4.859l0.972-3.887v-3.401l-1.458-0.972l-3.887,0.972l-1.944-1.943l-2.429-1.458l1.943-0.486v-0.972l-0.972-0.486
		l-6.802-0.972h-2.429l-0.528,0.423l-0.444,0.063l-0.648,0.81l-0.81,0.648l0.112,0.224l-0.598,0.748l0.486,3.887l0.486,4.859
		l-3.401,0.486l-1.943,2.429l-4.373,5.345v3.401l-2.915-0.486l-0.972-1.458l-1.495-2.616l-0.449-2.242l1.943-0.972l1.386-0.99
		l0.072,0.018l1.944-1.458l1.458-2.915v-3.401l-0.486-0.972l-0.68-0.972l-0.292-0.486l-1.944-2.915l-1.458-3.644l-0.972-3.158
		l-0.81-1.62l-0.648-1.782l-0.292-0.097l-0.68-1.36l-0.486-2.429l1.943-0.972h0.486l3.401-1.943l7.774-4.373l3.401-3.401
		l2.429-4.859l0.292-1.943h0.194l0.972-7.774v-7.774l0.444-1.922l0.042-0.021l1.458-6.316v-0.243l1.458-6.559l0.208-1.666
		l0.278-1.249l0.972-6.316v-0.486l1.458-5.83v-7.288l0.486-3.401l1.458-4.373l1.943-2.429l5.83-1.458l6.316-2.429l6.316-3.887
		l4.373-4.373l1.458-3.887v-5.345l-1.943-5.345l-1.943-1.943l-4.859-1.943l-4.373-1.458h-4.373l-2.915,0.972v0.194l-1.943,0.777
		l-3.401,2.915l-2.915,5.345l-0.139,0.382l-0.833,1.562l-0.139,1.111l-0.833,2.291l-1.458,2.429l-0.486,4.373l-0.486,0.972
		l-0.972,2.915l-1.458,3.887l-0.324,1.458l-0.162,0.486l-3.887,7.774l-1.458,1.458l-3.401,2.915l-3.887,5.345l-3.401,3.401
		l-1.943,2.915l-2.915,3.401l-3.401,4.859l-4.373,6.802l-1.943,5.83v7.774l-0.486,1.943l-0.081,0.891l-1.377,6.883l-2.915,2.429
		l-6.316,4.373l-5.83,1.943l-5.83,2.915l-2.429-0.486h-3.887l-8.26,3.401l-1.372,0.915l-0.572,0.057l-0.972,0.972h-2.429h-2.429
		l-1.944,1.943l0.486,2.429l-4.859-1.458l-3.401,0.486h-3.401l-0.972-0.486l-0.972-0.486l-3.401-3.401l-0.405-1.62l2.348-4.697
		l0.486-3.401l-0.972-1.701v-0.243l-0.756-1.08l-0.216-0.378l-0.389-0.486l-2.041-2.915l-3.401-3.401l-0.299-0.075l-2.616-2.355
		l-6.316-2.429h-3.887l-2.915,0.486l-0.972-1.458l-1.943-1.943h-7.288h-3.401l-7.774,3.887v0.029l-0.972,0.457h-2.915l-1.458-0.972
		l-0.213-0.03l-0.759-0.455l-1.215,0.174l-1.215-0.174l-0.759,0.455l-0.213,0.03l-0.243,0.243l-1.215,0.729l-0.081,0.567
		l-0.405,0.405l0.173,1.215l-0.173,1.215l-0.972,1.944l-5.345,2.915l-1.943,2.429l-0.972,2.915h-1.458h-6.802l-0.972,0.486v0.243
		l-2.915,2.186l-1.943,2.915l-0.486,7.288l0.972,2.429l0.486,2.915l-4.373,1.943l-2.429,1.943l-2.429,2.429l-3.401,5.345
		l-3.401,3.887l-1.943,0.486l-0.972-1.458v-6.802l1.943-0.486v-0.069l1.458-0.416l1.458-1.458l0.486-0.486l1.943-3.332l0.972-1.527
		l0.026-0.184l0.46-0.788l0.486-8.26l0.486-1.458l-0.972-8.746l1.458-2.915l0.972-3.887l-0.486-9.232v-1.943l-1.458-6.802
		l-0.972-1.943l-0.756-0.648l-0.216-0.324l-1.296-0.972l-1.134-0.972l-0.097,0.049l-1.36-1.02l-1.458-1.64v-0.304l-1.943-1.943
		l-0.069-0.017l-0.416-0.469l-2.429-2.429v-4.373l2.915-4.373l0.486-2.429l-1.458-3.887l-4.859-4.373l-2.915-0.486l-1.943,1.458
		l-0.121,0.607l-0.364,0.364l-0.208,2.499l-0.278,1.388v1.943l-0.486,5.83l-0.81,1.62l-0.37,0.463l-2.707,1.805l-1.458,0.972
		l-5.345,2.915l-3.887,4.373l-2.915,6.802l-0.972,4.373l-1.458,2.915l-0.486,8.26v6.316l-1.458,4.859l-2.429,12.147l-3.401,0.972
		l-1.944,1.458l-0.972,3.887l-2.915,0.972l-12.633,0.972l-2.915-0.972l-1.458-1.458l-1.458-4.373l-0.486-4.373l0.972-0.486
		l2.915-3.401l0.486-3.401l-0.972-2.915l-1.458-9.717l-0.972-2.915l-2.915-12.633l-1.458-9.232v-8.26l0.486-1.458v-4.859
		l-0.972-4.373l-0.953-1.668l-0.018-0.275l-0.972-1.458l-3.401-0.486l-1.458,0.972l-0.097,0.194l-0.389,0.292v0.486l-0.972,1.943
		v15.062l1.943,4.373l2.915,11.175l0.972,10.689l-0.486,4.373l-1.943,2.429l-2.429,4.373l-1.943,2.915l-0.486,3.401l0.972,1.458
		l5.345,3.401v3.401l-2.915,5.83l-2.915,2.429l-5.345,4.373l-4.859,3.401l-3.887,4.859l-2.915,0.972l-4.373-2.429l-5.345-2.915
		l-4.373-0.486l-0.972,0.486l0,0l-2.915,1.458l-3.401,3.887h-1.458l-4.859-2.429l-0.486-2.429l1.458-1.943l-0.486-2.915
		l-1.943-2.429l-3.887-1.943l-5.83-0.486l-2.915-4.859l-3.887-7.774l1.943-8.26l2.915-3.401l3.401-5.345l-0.486-1.458l-0.405-0.101
		l-1.053-1.842l-0.972-4.373l-1.458-1.943l-4.373-2.429l-1.944-3.401l-4.373-3.401l-2.915-1.458h-6.802l-4.373,1.458l-1.458,2.429
		l-3.887,6.316l-0.486,2.915l1.458,2.915l4.373,3.887l2.429,2.429l2.429,0.486l2.915-1.458l1.822-0.456l0.052,0.039l-1.388,1.388
		l-1.458,2.429v6.316l1.943,6.802l1.943,4.373l1.943,3.887v1.943v4.859l0.486,0.486l0.972,0.972h0.486l1.458,0.972l2.429,1.458
		v3.401l-2.429-0.486h-2.915l-4.859,1.943l-4.373,4.373l-3.401,6.316l-0.425,0.992l-0.061-0.02l-0.972,2.429l0.486,4.859
		l2.429,3.887l0.262,0.149l0.224,0.336l0.466,0.058l2.449,1.399l7.288,0.486l1.458,0.486l5.831,0.486l0.486,0.486l1.458,2.915v3.887
		l-2.429,4.373v3.887l0.486,1.458l0.486,3.887l-2.429,0.486v1.943l0.972,2.915l-0.486,2.915l-1.458,0.486l-4.373-3.401l-2.429-0.972
		l-1.943,1.458l-1.458,6.316v3.887l1.458,6.802l1.943,6.802v3.401l-0.486,0.972l0.486,2.915l0.486,4.859l1.458,4.373l0.486,4.859
		l-0.972,1.458l-2.915,1.458h-5.83l-0.972-0.486l-3.401-3.887l-3.887-3.401l-1.943,0.972l-1.458,3.401v4.859l0.486,1.458
		l2.429,3.887l2.915,4.373l1.458,2.429v3.401l-0.486,0.972l-1.943,1.943l-7.774,3.887h-4.373l-6.802-1.458l-1.943,1.944v2.915
		l0.972,1.458l3.887,2.429l5.83,2.429v3.401l1.944,1.944l6.316,4.373l-0.972,1.944l3.887,1.943l2.915,3.401l1.943,0.972l3.105,1.774
		l0.435,0.724l0.347,1.388l-2.429,2.429l-3.401,4.859l-4.859,4.373l-2.915,3.887l-1.944,4.373l-4.373,3.401l-10.689,5.345H89.55
		l-6.802-0.972h-3.401l-0.972,0.486H73.03l-1.458,0.972l-7.288,1.458l-3.401,1.458l-11.661-0.486l-4.826-0.839l-0.033-0.133
		l-2.429-0.486h-0.729l-3.158-0.486l-4.373-2.429l-2.915-0.972l-2.429,1.458v4.859L28.816,420.672z M565.219,603.846l-1.943-0.486
		l-0.486-2.429l0.972-2.429l2.429-0.486l3.887,2.915l-0.486,1.458L565.219,603.846z M136.194,189.883l-0.972,0.486l-2.429-0.486
		l0.486-0.972l2.429-0.972l0.243,0.729L136.194,189.883z M341.718,193.77l2.915,0.972h2.915l1.458-0.972l0.27-0.324l0.216-0.162
		l0.035-0.139l1.909-2.291l2.429-0.486l1.943,2.429l1.166,1.036l0.777,0.907l0.972,0.648l1.458,1.296l2.429,2.429l1.458,3.401
		l-2.429,2.429l-2.429-0.486l-2.915-0.486l-2.915,2.429l-2.429,2.429v2.915l2.429,3.401l-0.486,1.458l-3.887,0.486l-4.373,2.429
		l-4.859,3.401l-6.316,1.943l-9.232,4.373l-2.429-0.187v-0.299l-4.859-0.972l-0.486-1.944l3.887-1.458l5.764-2.562l0.066,0.133
		l2.915-1.458l2.429-1.943l0.486-3.887l-0.972-4.373l-0.374-0.561l-0.112-0.411l-0.364-0.304l-0.121-0.182l-0.139-0.035
		l-2.291-1.909l-0.486-0.972h-0.486l-1.458-1.458l0.972-1.943l0.486-0.486l2.332-3.79l2.041-2.041l3.401-0.972l3.401-1.458H341.718z
		 M584.654,420.672v-0.486l16.118-2.066l14.007-0.849h9.232l22.35,1.943l0.972,0.486h1.458l5.183,0.324l2.591,0.648l4.859,2.915
		l1.458,2.429l-8.163,1.943h-0.097l-0.486,0.139l-1.458,0.347l-0.921,0.332l-0.537,0.153l-0.015,0.046l-1.218,0.44h-0.224
		l-2.915,1.134l-7.288,2.632l-0.486,0.121l-7.774,2.429l0.083,0.021l-7.371,1.923l-2.591,0.972l-1.62,0.486h-2.591l-8.26-2.429
		l-12.633-2.429l-9.232-0.486l-10.203-0.972l-14.602-0.885l-1.432-0.573l1.458-1.458h0.486l0.243-0.729l0.243-0.243l3.401-1.458
		l3.887-1.943l0.85-0.486h1.093l0.972-0.486l1.023-1.279l2.864-1.637l4.859-0.972H584.654z M473.875,238.47l-0.389,0.194
		l-0.097-0.194l0.486-0.972h0.972l3.061,2.186l0.437,0.729l0.308,1.539l-0.769,0.769l-2.551-0.364v-0.972L473.875,238.47z
		 M203.73,471.689l0.398-1.193l1.06-0.265l1.943-1.458l0.437-0.583l1.02-0.875l0.486-1.134l0.972-1.296l1.943-0.972l0.46,8.74
		l-4.347-0.966H203.73z"/>
	<polygon points="79.833,247.702 83.72,247.702 87.607,244.786 87.121,239.442 85.663,237.498 82.748,236.041 77.889,236.041 
		75.946,237.498 74.488,240.413 74.488,243.815 75.946,245.758 	"/>
	<polygon points="404.395,642.23 400.994,640.286 397.593,640.286 396.621,640.772 394.192,643.687 393.706,647.574 
		394.678,649.518 398.565,652.433 401.966,652.433 403.424,651.947 405.853,649.032 406.339,645.631 	"/>
	<polygon points="525.377,267.622 531.694,263.249 534.123,260.334 534.123,257.419 533.151,256.447 529.75,256.447 
		527.321,257.419 520.033,262.278 518.089,264.707 517.603,267.622 518.575,269.08 521.976,269.08 	"/>
	<polygon points="379.616,133.522 379.99,133.821 380.102,134.007 381.438,134.979 382.045,135.465 382.106,135.465 
		385.446,137.894 388.847,138.38 391.277,137.409 394.678,134.493 396.135,130.606 396.135,125.262 394.678,120.403 
		392.248,117.974 389.333,116.516 382.531,116.03 380.102,117.488 378.158,121.375 378.158,126.719 378.644,131.578 	"/>
	<polygon points="133.765,89.307 137.166,89.793 140.081,88.335 142.51,85.42 142.51,81.533 141.053,79.59 138.623,78.132 
		135.222,78.132 133.765,78.618 130.849,81.047 130.849,86.392 131.335,87.85 	"/>
	<polygon points="552.586,456.627 552.1,453.225 550.157,448.853 547.728,447.395 544.812,447.395 542.383,450.31 541.897,454.683 
		543.355,456.627 545.298,460.513 548.699,460.513 551.129,459.056 	"/>
	<polygon points="436.463,643.201 432.576,641.258 428.203,640.772 424.802,642.23 423.83,644.659 423.83,649.032 422.211,650.004 
		421.887,650.004 421.401,650.49 420.429,652.919 420.915,654.862 422.373,655.834 425.288,656.32 427.717,654.862 427.231,658.263 
		429.175,659.235 429.661,658.749 430.146,658.263 430.285,657.708 431.118,656.32 434.519,655.834 435.624,655.172 
		435.977,655.348 436.949,654.376 438.892,648.06 438.406,645.631 	"/>
	<polygon points="89.064,320.582 86.149,320.582 85.177,321.068 83.234,323.498 83.234,326.899 84.206,329.328 85.177,330.3 
		85.177,330.3 87.607,332.729 91.008,333.215 91.98,332.729 93.923,330.3 93.923,327.385 92.951,323.983 	"/>
	<polygon points="211.018,135.465 213.933,135.465 214.905,134.979 217.335,132.55 217.82,129.149 216.363,125.748 212.476,123.804 
		209.075,124.776 207.131,127.205 206.645,131.092 208.103,133.522 	"/>
	<polygon points="410.712,609.676 406.339,608.704 404.881,610.162 405.367,613.563 408.768,617.45 409.254,619.394 406.339,619.88 
		404.881,621.823 404.881,624.738 406.339,626.682 410.226,626.682 411.683,625.224 412.169,620.365 412.655,619.394 
		412.169,611.134 	"/>
	<polygon points="473.875,586.84 475.333,586.354 476.79,584.411 477.276,581.01 476.304,579.552 473.389,578.095 471.931,575.665 
		469.988,573.236 467.559,573.236 465.615,575.665 465.615,578.58 467.073,580.038 468.53,584.411 470.96,586.354 	"/>
	<polygon points="73.516,279.769 77.889,279.769 79.833,278.797 82.748,275.396 82.748,272.481 82.262,271.509 79.833,269.566 
		76.432,269.08 73.516,270.538 73.03,271.023 72.545,271.023 71.087,272.967 71.573,277.34 	"/>
	<polygon points="167.29,76.189 168.261,75.703 169.719,72.788 170.205,69.872 168.747,67.929 165.832,65.499 162.431,65.499 
		161.459,65.985 159.516,68.415 159.03,72.788 161.945,76.189 	"/>
	<polygon points="235.798,91.737 240.17,91.737 243.086,88.335 243.572,86.392 242.6,82.505 241.142,82.019 236.769,81.047 
		234.34,82.019 232.397,84.448 232.397,88.335 233.854,90.765 	"/>
	<polygon points="450.553,99.025 452.011,98.053 453.468,94.652 452.982,90.279 450.553,87.85 446.666,87.85 445.694,88.335 
		443.751,91.251 443.751,95.624 446.666,99.025 	"/>
	<polygon points="237.741,619.394 232.397,619.394 229.967,619.88 229.603,620.192 228.995,620.365 227.781,621.754 
		226.566,622.795 226.275,623.475 225.594,624.252 225.632,624.974 225.108,626.196 225.108,632.512 223.651,636.594 
		221.707,641.258 221.707,641.258 219.764,645.631 216.532,652.454 215.046,654.831 214.905,654.862 214.419,655.834 
		214.419,658.749 213.448,658.749 212.84,659.235 212.476,659.235 211.018,660.693 210.532,663.608 211.99,665.552 210.532,666.037 
		210.532,670.41 210.046,670.896 205.188,671.382 203.244,674.297 203.244,677.698 204.702,680.128 206.969,682.071 
		207.131,682.557 207.536,682.557 208.103,683.043 211.018,683.043 212.962,682.071 215.877,677.698 216.784,676.111 
		216.849,676.241 217.82,674.297 219.764,673.811 222.679,672.84 224.623,670.41 225.108,667.495 223.651,665.552 222.375,665.268 
		222.679,665.066 219.278,664.58 216.363,666.523 217.82,663.608 220.25,656.32 224.623,649.032 224.785,648.735 227.052,645.145 
		228.753,641.258 231.182,636.399 231.587,635.859 235.798,634.456 238.227,632.026 240.17,624.252 239.685,621.337 	"/>
	<polygon points="488.451,677.212 486.508,678.67 486.994,682.557 486.508,687.902 486.508,691.303 487.479,692.274 
		489.909,693.246 492.338,691.789 491.852,689.359 491.366,686.444 493.796,683.043 494.282,679.642 492.338,677.698 	"/>
	<polygon points="287.3,640.286 283.413,642.716 283.413,645.145 284.385,647.088 287.3,650.49 290.701,650.975 291.673,650.49 
		291.916,650.247 293.131,649.518 294.588,643.687 289.244,640.772 	"/>
	<polygon points="552.1,657.778 544.326,657.778 540.925,657.292 538.982,658.749 538.982,661.179 540.439,662.636 540.439,662.636 
		540.925,663.122 554.044,663.608 555.016,662.636 554.53,659.235 	"/>
	<polygon points="137.166,558.66 141.053,556.23 140.567,551.372 136.68,548.942 134.25,548.456 131.335,550.886 130.849,554.773 
		130.914,555.097 130.849,555.744 131.141,556.23 131.335,557.202 131.74,557.445 131.821,557.688 132.05,557.745 132.307,558.174 
		132.955,558.174 133.765,558.66 	"/>
	<polygon points="616.235,496.468 615.75,493.553 613.32,491.609 610.405,491.609 607.004,494.525 605.06,493.067 602.145,493.067 
		601.173,494.039 601.173,496.954 601.659,497.44 602.006,497.509 602.631,497.926 603.322,497.772 604.089,497.926 
		604.505,497.509 607.004,496.954 608.947,498.897 613.32,499.383 614.292,498.897 	"/>
	<polygon points="575.422,573.236 574.451,571.292 572.021,569.835 569.106,570.321 567.648,571.778 566.191,574.693 
		566.677,578.095 568.62,580.038 572.507,580.038 573.479,579.552 575.422,577.609 	"/>
	<polygon points="419.943,643.201 421.401,642.23 422.858,639.8 422.858,636.399 422.373,634.942 420.915,633.484 417.514,633.484 
		415.084,635.427 413.141,638.343 413.627,640.772 416.056,643.201 	"/>
	<polygon points="711.952,409.983 715.353,409.011 721.184,406.582 721.67,404.638 719.726,402.695 714.868,402.695 
		712.924,403.181 708.065,405.61 707.579,408.525 708.551,409.497 	"/>
	<polygon points="87.607,393.949 90.036,395.407 97.81,395.407 97.324,393.463 96.352,390.548 91.98,389.09 85.663,389.09 
		84.206,389.576 82.748,391.52 83.234,392.977 	"/>
	<polygon points="487.965,207.86 490.395,206.402 494.282,202.515 496.225,199.114 495.253,196.685 492.338,196.685 
		490.395,198.143 485.05,203.973 484.564,207.374 485.05,207.86 	"/>
	<polygon points="692.032,403.666 688.145,405.124 685.229,407.553 684.743,409.983 686.201,411.44 690.088,411.44 694.461,409.497 
		697.376,407.068 697.376,404.638 695.433,403.666 	"/>
	<polygon points="235.312,611.134 235.312,611.134 235.312,611.134 234.826,610.162 232.397,608.704 228.995,608.704 
		228.024,609.19 226.566,610.648 226.566,614.535 228.51,616.964 229.481,617.103 229.481,617.45 231.911,617.45 233.368,616.478 
		233.611,616.236 235.312,615.021 235.409,614.438 235.798,614.049 235.636,613.077 235.798,612.106 	"/>
	<polygon points="546.756,162.674 549.671,163.16 552.1,161.216 552.351,159.464 552.586,159.759 552.424,158.949 552.586,157.815 
		552.1,157.329 549.671,154.9 546.756,154.414 543.841,156.358 543.355,159.273 544.326,161.216 	"/>
	<polygon points="212.962,108.742 215.391,107.77 217.335,104.855 216.363,100.482 214.905,99.025 211.99,99.996 209.561,102.426 
		208.589,105.827 210.046,107.77 	"/>
	<polygon points="574.936,235.555 577.852,235.555 579.795,235.069 586.597,231.668 590.97,228.267 590.97,226.323 587.569,226.809 
		579.795,230.696 575.908,233.611 	"/>
	<polygon points="683.286,391.034 684.743,392.491 688.63,392.491 692.032,391.034 694.461,389.09 694.947,386.661 693.975,385.689 
		689.602,385.689 683.772,388.604 	"/>
	<polygon points="399.537,612.106 399.093,612.042 398.565,611.62 397.35,611.793 396.135,611.62 396.014,611.984 395.164,612.106 
		392.248,616.478 391.763,617.45 390.791,619.394 391.763,622.795 394.678,624.252 399.051,624.252 401.48,623.281 401.48,617.936 
		400.994,613.563 	"/>
	<polygon points="230.453,146.64 233.854,144.697 234.34,141.781 232.397,139.838 228.51,139.838 227.052,140.324 225.108,141.781 
		225.108,144.697 226.566,146.64 	"/>
	<polygon points="507.886,475.576 507.076,475.98 506.428,476.061 506.185,476.426 505.943,476.547 500.112,476.061 
		499.383,476.608 499.14,476.547 498.169,477.519 498.169,480.92 499.14,481.892 501.57,482.378 503.999,479.948 508.372,479.462 
		509.182,478.977 509.829,478.977 510.801,478.005 510.315,475.576 	"/>
	<polygon points="673.568,225.837 675.998,223.894 676.484,220.493 674.54,218.063 671.139,217.577 668.71,220.007 668.71,222.922 
		670.653,225.351 	"/>
	<polygon points="447.638,154.414 448.61,153.928 450.553,151.985 450.067,148.584 447.152,146.154 444.723,146.64 442.779,148.584 
		442.779,151.499 444.723,153.928 	"/>
	<polygon points="423.83,99.511 422.373,100.968 422.373,105.827 423.344,107.284 426.26,107.77 427.231,107.284 429.175,104.855 
		428.689,100.968 427.231,99.511 	"/>
	<polygon points="672.597,391.52 674.54,391.034 678.913,388.604 678.913,386.661 676.484,385.689 670.653,386.661 668.224,388.119 
		667.738,390.548 668.71,391.52 	"/>
	<polygon points="366.011,131.092 367.469,130.606 373.785,129.635 374.757,129.149 374.757,127.691 373.785,126.719 
		372.725,126.322 372.814,126.233 369.898,125.262 366.011,125.748 363.582,128.177 364.068,130.606 	"/>
	<polygon points="578.337,359.938 577.852,356.537 576.394,355.079 573.479,354.593 571.535,356.051 571.049,359.452 
		572.507,361.396 574.936,362.367 576.88,361.881 	"/>
	<polygon points="418.486,659.721 415.57,662.15 415.084,664.58 417.028,666.523 419.457,667.009 421.887,665.552 422.373,662.15 
		420.915,660.207 	"/>
	<polygon points="401.966,677.212 401.48,680.614 402.938,683.529 405.853,684.015 406.825,683.043 408.282,680.128 
		408.768,677.698 403.909,676.727 	"/>
	<polygon points="670.167,364.797 668.71,362.367 666.28,362.367 663.365,363.339 660.936,365.768 661.907,368.198 664.823,368.198 
		667.738,367.226 	"/>
	<polygon points="374.757,601.416 371.842,603.846 371.842,606.275 373.299,608.704 376.215,608.704 377.186,607.733 
		378.644,605.303 377.672,602.388 	"/>
	<polygon points="124.047,154.9 124.533,157.329 126.962,159.759 130.363,160.245 132.793,159.273 134.736,157.329 135.222,156.843 
		135.222,152.956 134.736,151.499 134.25,151.013 132.793,149.555 129.878,149.555 125.505,151.013 	"/>
	<polygon points="575.908,229.238 576.88,228.267 577.366,224.866 576.394,223.408 572.507,223.408 571.535,224.38 570.564,227.295 
		572.021,229.238 	"/>
	<polygon points="506.428,568.377 506.914,567.891 507.4,567.405 507.4,567.081 508.372,565.462 508.372,561.575 507.886,560.603 
		504.971,558.66 504.485,558.66 501.084,558.66 500.112,559.146 499.869,559.388 498.654,560.117 498.169,561.089 497.683,561.575 
		497.804,561.818 497.197,563.032 497.683,566.434 499.626,568.863 503.999,569.835 505.457,569.349 	"/>
	<polygon points="492.338,593.642 492.824,590.727 491.366,588.784 487.965,588.784 486.994,589.755 486.508,592.671 
		487.965,594.614 490.395,595.1 	"/>
	<polygon points="480.191,576.151 480.677,575.179 480.677,572.264 479.22,570.321 476.79,569.835 474.847,571.292 474.361,573.236 
		475.818,575.179 478.734,576.637 	"/>
	<polygon points="550.643,206.402 549.185,204.945 546.27,204.945 544.326,206.402 544.326,209.318 546.756,210.775 
		549.671,209.318 	"/>
	<polygon points="489.909,660.207 491.366,658.749 491.366,656.32 489.909,654.376 487.479,654.376 486.022,655.348 
		485.536,658.263 486.994,660.207 	"/>
	<polygon points="329.085,665.066 328.113,666.037 327.627,668.467 329.085,670.41 331.514,670.896 332.972,669.924 
		333.458,666.523 332,665.066 	"/>
	<polygon points="486.022,145.182 484.078,144.697 482.621,146.154 480.191,150.041 480.191,152.956 481.163,152.956 
		482.135,152.471 486.022,148.098 	"/>
	<polygon points="435.491,173.363 436.949,173.849 438.406,172.391 441.322,168.504 441.807,165.589 439.378,165.103 
		436.949,168.99 	"/>
	<polygon points="623.524,244.786 625.467,243.329 625.467,240.413 624.009,238.956 621.094,239.442 619.637,241.871 620.608,244.3 
			"/>
	<polygon points="596.315,344.39 592.428,344.876 589.027,347.305 589.027,349.249 592.428,349.249 593.885,348.763 
		596.801,346.819 	"/>
	<polygon points="372.328,181.623 372.328,184.052 372.747,184.555 372.814,185.024 373.138,185.024 374.757,186.967 
		376.215,187.129 376.215,187.453 379.13,187.453 380.588,186.967 380.911,186.563 381.073,186.482 381.235,186.158 
		382.531,184.538 382.531,181.623 381.559,180.165 378.158,178.708 374.757,179.194 	"/>
	<polygon points="383.017,191.826 383.503,194.741 386.904,195.227 388.361,193.77 388.361,190.854 387.39,189.883 385.446,189.397 
			"/>
	<polygon points="596.315,125.262 597.286,124.29 597.286,121.375 596.315,120.403 593.399,119.917 591.942,120.889 
		591.942,123.804 593.399,125.262 	"/>
	<polygon points="126.962,77.646 127.448,77.16 127.934,73.759 126.476,71.816 124.047,71.816 123.075,73.273 123.075,76.189 
		123.561,77.16 	"/>
	<polygon points="557.931,153.442 563.275,149.069 564.247,146.64 562.304,146.64 560.36,148.098 555.501,151.985 555.016,153.928 
		556.959,153.928 	"/>
	<polygon points="668.71,381.316 670.653,380.83 674.54,378.887 674.54,377.429 673.568,376.943 667.738,377.915 666.28,379.373 
		666.766,380.83 	"/>
	<polygon points="135.708,126.719 135.222,130.12 136.194,131.092 139.109,131.092 140.081,130.12 140.567,127.691 139.109,126.233 
			"/>
	<polygon points="605.546,145.182 608.947,142.267 609.433,140.324 607.976,140.81 601.173,145.668 597.772,149.069 
		598.744,149.555 	"/>
	<polygon points="538.496,317.181 542.383,315.238 542.383,314.266 538.982,314.266 534.123,315.724 531.208,318.153 
		533.151,318.639 	"/>
	<polygon points="459.785,685.472 459.299,685.958 458.813,688.388 460.271,690.331 463.186,690.331 463.672,689.845 
		464.158,687.416 463.186,685.958 	"/>
	<polygon points="152.066,180.165 152.714,181.137 155.629,181.137 156.601,180.651 158.544,178.222 158.544,173.849 
		157.086,172.391 153.199,172.391 152.441,173.339 152.228,173.363 151.256,174.821 150.77,178.222 151.742,180.165 	"/>
	<polygon points="174.092,200.572 175.549,199.6 176.035,197.171 175.064,196.199 172.634,195.713 171.177,196.685 170.691,199.114 
		171.663,200.572 	"/>
	<polygon points="389.333,608.219 388.847,609.19 388.361,613.563 390.305,615.507 391.763,613.077 392.248,608.704 
		391.763,608.219 	"/>
	<polygon points="673.568,323.012 673.568,323.206 673.083,323.983 671.625,331.757 672.111,336.13 675.026,340.017 
		680.857,342.932 689.602,342.932 692.032,341.961 694.947,339.531 698.348,334.187 698.348,330.786 696.89,323.012 
		695.919,321.554 693.489,319.125 688.145,317.181 682.314,317.181 680.857,317.667 675.512,320.096 	"/>
	<polygon points="642.473,669.924 640.043,671.868 640.043,675.269 641.501,677.212 644.902,677.698 647.331,675.269 
		647.331,672.354 645.388,669.924 	"/>
	<polygon points="575.908,546.513 576.394,549.428 578.823,549.914 580.281,548.942 580.767,546.513 579.795,545.055 
		577.366,545.055 	"/>
	<polygon points="109.471,302.119 112.872,302.119 114.33,300.662 113.844,297.746 111.414,297.746 109.471,299.69 108.499,301.633 
			"/>
	<polygon points="95.381,233.611 96.838,232.639 97.324,230.21 96.352,229.238 92.951,229.724 91.98,231.668 92.465,233.611 	"/>
	<polygon points="476.304,626.682 474.847,627.654 474.361,630.083 475.333,631.055 477.276,631.54 479.705,629.111 
		478.734,627.168 	"/>
	<polygon points="235.312,110.2 235.798,110.686 238.227,111.171 239.685,110.2 239.685,107.284 238.227,106.313 235.312,107.284 	
		"/>
	<polygon points="324.712,113.601 325.198,110.2 324.712,109.714 322.283,109.228 321.311,110.2 321.311,114.087 323.74,114.573 	
		"/>
	<polygon points="562.304,349.735 562.304,347.305 561.818,346.819 559.388,346.334 557.931,347.305 557.445,349.735 
		558.417,350.706 560.846,350.706 	"/>
	<polygon points="241.142,51.409 242.6,50.437 242.6,48.008 241.628,46.55 238.713,46.55 238.227,47.522 238.713,50.437 	"/>
	<polygon points="641.987,355.079 643.444,353.622 643.93,351.192 641.015,350.706 639.071,352.65 639.071,355.079 641.015,355.565 
			"/>
	<polygon points="578.199,374.653 579.309,375.486 580.281,380.345 581.253,383.746 583.682,386.175 586.597,386.175 
		588.055,385.203 589.998,380.83 590.484,378.401 587.569,376.458 585.14,374.028 583.682,366.74 582.224,365.283 579.795,365.283 
		577.366,366.254 575.422,368.684 575.422,372.571 577.852,374.514 	"/>
	<polygon points="590.97,365.283 590.484,367.226 592.914,367.712 594.371,367.226 596.315,365.768 595.829,363.825 
		592.914,363.825 	"/>
	<polygon points="298.475,199.6 300.904,200.086 301.876,199.6 301.946,199.392 303.82,198.143 306.249,194.256 306.249,190.369 
		304.791,187.939 302.362,186.482 298.961,186.482 297.503,187.453 297.341,187.696 297.018,187.939 297.072,188.101 
		295.56,190.369 295.56,195.227 296.046,196.685 	"/>
	<polygon points="318.396,157.815 319.854,157.329 321.797,154.9 321.311,151.499 319.854,150.041 316.452,150.041 315.481,151.013 
		314.023,153.928 314.995,156.843 	"/>
	<polygon points="452.982,683.529 452.497,686.444 453.468,687.416 455.898,687.902 456.384,687.416 456.384,684.501 
		454.926,683.043 	"/>
	<polygon points="455.412,580.524 455.412,577.609 453.954,576.637 451.525,577.609 451.525,580.038 452.497,581.01 454.926,581.01 
			"/>
	<polygon points="81.776,304.063 83.72,304.063 85.177,302.605 85.663,300.176 83.72,299.69 81.29,301.633 	"/>
	<polygon points="563.275,370.627 564.733,370.141 565.705,368.684 564.733,366.74 562.304,366.74 560.846,368.684 561.332,370.141 
			"/>
	<polygon points="516.146,208.346 517.118,205.917 515.66,205.917 511.773,209.803 510.801,212.233 511.773,212.233 	"/>
	<polygon points="445.694,680.614 445.209,683.043 446.18,684.501 449.095,684.986 449.581,683.043 447.638,681.099 	"/>
	<polygon points="418.486,675.755 417.514,676.727 418,679.642 419.943,680.128 421.401,678.67 420.915,676.241 	"/>
	<polygon points="533.151,150.527 533.637,147.612 532.18,147.612 529.75,150.527 529.264,152.956 530.722,152.956 	"/>
	<polygon points="622.066,507.643 622.552,505.214 621.58,504.242 618.665,504.728 618.665,507.643 621.094,508.129 	"/>
	<polygon points="603.603,113.115 604.575,112.629 606.275,111.414 608.947,109.714 612.179,107.228 612.349,107.284 
		615.264,104.855 615.75,102.912 614.778,102.426 612.349,102.912 608.947,105.341 601.659,111.171 600.688,113.115 
		602.631,113.601 	"/>
	<polygon points="565.705,357.994 565.219,357.509 562.79,357.509 562.304,357.994 561.818,359.938 562.79,360.91 565.219,360.91 
		565.705,360.424 	"/>
	<polygon points="398.079,668.953 398.565,666.523 396.135,665.552 394.678,667.009 395.164,668.953 397.593,669.438 	"/>
	<polygon points="106.07,288.515 105.098,289.487 105.584,291.916 108.013,291.916 108.985,290.944 108.499,288.515 	"/>
	<polygon points="393.22,663.608 393.706,661.665 392.248,660.207 390.305,660.693 389.819,662.15 390.305,663.608 392.248,664.094 
			"/>
	<polygon points="343.661,117.974 344.633,117.002 344.633,114.573 342.69,114.087 341.232,115.544 341.718,117.488 	"/>
	<polygon points="566.191,164.132 565.905,163.989 565.705,162.188 563.761,160.245 560.846,160.245 558.903,161.702 
		556.959,165.103 557.445,167.533 558.903,168.99 562.304,169.476 563.275,168.99 566.191,166.561 	"/>
	<polygon points="610.405,360.424 612.349,360.91 614.292,359.452 613.32,357.509 610.405,357.994 	"/>
	<polygon points="446.666,647.088 447.152,646.603 447.152,644.173 446.18,643.687 443.751,644.173 444.237,646.603 	"/>
	<polygon points="619.718,512.097 619.637,511.53 618.989,511.368 618.665,511.044 618.341,511.206 617.693,511.044 
		616.721,512.016 616.721,512.016 616.721,512.016 616.235,512.502 614.292,512.016 611.863,510.558 608.462,510.558 
		607.004,512.502 607.49,515.417 609.919,517.361 613.32,517.846 615.75,517.361 616.235,517.361 616.661,517.178 618.179,516.875 
		618.786,516.267 619.637,515.903 619.718,515.336 620.122,514.931 619.949,513.716 620.122,512.502 	"/>
	<polygon points="558.903,297.26 557.445,297.746 557.445,301.633 559.388,302.605 559.874,300.176 	"/>
	<polygon points="534.609,310.865 537.038,310.865 537.524,308.436 536.067,307.464 534.123,308.436 	"/>
	<polygon points="396.547,707.972 395.65,706.851 393.22,706.851 391.277,708.794 390.791,711.709 392.248,714.139 395.164,714.625 
		397.593,712.195 397.593,709.28 396.621,707.822 	"/>
	<polygon points="443.265,658.749 445.209,658.749 446.18,657.778 446.18,655.834 444.237,655.348 443.265,656.32 	"/>
	<polygon points="397.593,657.292 395.65,657.778 395.164,660.207 397.593,660.693 398.565,659.235 	"/>
	<polygon points="227.538,157.815 228.51,157.329 228.995,154.9 227.052,154.414 225.594,156.843 	"/>
	<polygon points="325.582,156.204 325.198,156.843 325.35,158.058 325.198,159.273 325.64,160.377 325.684,160.73 325.878,160.973 
		326.17,161.702 326.461,161.702 327.627,163.16 332.972,166.561 335.887,167.047 336.859,166.561 338.803,164.617 341.718,159.273 
		341.232,156.843 338.317,153.928 335.887,152.714 335.887,152.471 334.43,151.985 330.057,151.985 329.085,152.471 
		326.656,154.414 326.073,155.386 325.684,155.386 	"/>
	<polygon points="453.954,666.037 454.44,668.467 456.384,668.953 456.869,668.467 456.384,666.037 	"/>
	<polygon points="500.112,702.478 500.598,704.421 503.027,704.421 503.027,701.992 501.084,701.506 	"/>
	<polygon points="77.889,252.074 76.917,253.046 76.432,256.447 77.889,258.391 80.804,258.877 82.218,257.816 82.262,257.905 
		82.748,257.419 83.234,254.504 81.29,252.074 	"/>
	<polygon points="554.044,330.786 555.501,331.272 556.473,329.814 555.987,327.87 553.558,328.356 	"/>
	<polygon points="92.698,472.766 97.81,475.09 101.211,475.09 104.612,473.632 108.499,470.231 108.985,468.287 107.527,466.344 
		102.669,464.886 98.296,464.886 95.381,466.344 91.98,469.259 91.251,469.988 90.036,470.717 90.036,471.203 89.55,471.689 
		90.036,471.85 90.036,472.174 	"/>
	<polygon points="476.79,648.546 476.658,648.148 476.79,648.06 476.547,647.817 476.304,647.088 474.604,645.874 471.446,642.716 
		469.502,642.23 469.502,644.173 470.474,646.117 471.446,649.518 473.389,650.49 474.361,650.004 474.361,649.032 475.333,649.032 
		475.749,648.754 	"/>
	<polygon points="564.247,345.848 565.219,344.876 564.733,342.447 562.79,343.418 562.304,345.362 	"/>
	<polygon points="576.88,589.27 576.88,587.326 574.451,587.326 573.965,589.755 575.908,589.755 	"/>
	<polygon points="80.319,356.537 80.804,357.509 82.748,357.994 83.234,355.565 81.29,355.079 	"/>
	<polygon points="151.256,551.372 148.827,550.886 148.341,552.829 149.798,553.801 150.77,553.315 	"/>
	<polygon points="447.638,648.06 448.124,650.004 449.581,650.49 450.553,649.518 450.067,647.574 	"/>
	<polygon points="603.603,609.676 601.659,609.19 601.173,611.62 603.117,612.106 	"/>
	<polygon points="545.298,479.948 546.756,480.434 549.185,478.005 545.784,478.491 	"/>
	<polygon points="646.845,463.915 647.331,461.971 645.388,461.485 644.902,463.915 	"/>
	<polygon points="187.696,680.128 189.154,681.099 190.126,680.614 190.126,678.67 188.668,678.184 	"/>
	<polygon points="86.635,293.373 86.149,295.317 87.121,295.803 89.064,293.859 	"/>
	<polygon points="98.296,367.712 97.81,369.17 99.753,369.655 100.239,367.712 	"/>
	<polygon points="509.344,709.766 510.801,710.252 511.287,708.308 509.344,707.822 	"/>
	<polygon points="397.107,691.303 399.051,691.789 399.051,689.845 397.593,689.359 	"/>
	<polygon points="404.395,659.235 405.853,659.721 406.339,657.778 404.881,657.292 	"/>
	<polygon points="511.287,678.67 513.231,679.156 513.231,677.698 511.773,676.727 	"/>
	<polygon points="393.706,685.472 395.65,685.958 396.135,684.501 394.192,684.015 	"/>
	<polygon points="223.651,70.358 223.165,67.929 221.707,68.901 222.193,70.358 	"/>
	<polygon points="401.48,674.297 402.938,675.755 403.424,673.325 401.966,673.325 	"/>
	<polygon points="517.118,684.986 518.575,684.986 519.061,683.529 517.118,683.043 	"/>
	<polygon points="163.889,486.751 163.403,488.208 164.86,488.694 165.346,486.751 	"/>
	<polygon points="558.903,361.396 557.445,361.881 557.445,363.339 558.903,363.339 	"/>
	<rect x="40.195" y="438.853" transform="matrix(0.3162 -0.9487 0.9487 0.3162 -389.0508 339.4574)" width="1.536" height="1.536"/>
	
		<rect x="456.587" y="649.721" transform="matrix(0.3162 -0.9487 0.9487 0.3162 -304.3762 878.6901)" width="1.536" height="1.536"/>
	<rect x="521.208" y="685.19" transform="matrix(0.3162 -0.9487 0.9487 0.3162 -293.8454 964.2255)" width="1.536" height="1.536"/>
	<polygon points="366.011,680.614 367.955,681.099 367.469,679.156 	"/>
	<polygon points="599.23,601.416 600.688,601.902 601.173,600.93 599.23,600.445 	"/>
	<polygon points="515.174,693.732 516.632,694.218 516.632,692.76 515.66,692.274 	"/>
	<polygon points="553.072,263.735 553.072,264.707 554.044,265.193 554.53,263.735 	"/>
	<polygon points="547.728,325.927 548.699,326.413 549.185,324.955 547.728,324.955 	"/>
	<polygon points="483.107,679.642 484.564,679.642 484.564,678.67 483.592,678.184 	"/>
	<polygon points="283.899,228.752 282.441,228.752 283.899,230.21 	"/>
	<polygon points="90.522,385.689 90.522,386.661 91.494,387.147 91.98,386.175 	"/>
	<rect x="493.31" y="723.856" width="0.972" height="1.458"/>
	<polygon points="188.182,620.365 186.725,619.88 186.725,620.851 188.182,620.851 	"/>
	<polygon points="504.485,670.896 505.457,670.896 505.943,670.41 504.485,669.924 	"/>
	<rect x="409.74" y="674.783" width="0.972" height="0.972"/>
	<rect x="476.304" y="701.02" width="0.972" height="0.972"/>
	<polygon points="303.82,699.563 304.306,699.077 303.334,698.591 	"/>
</g>
</svg>
